# xmcd CD database file
#
# Track frame offsets:
#	150
#	15093
#	27041
#	41166
#	54710
#	69330
#	83572
#	98205
#	112788
#	127592
#	142151
#	156207
#	169273
#	183381
#	196895
#	208637
#	222997
#	241414
#
# Disc length: 3383 seconds
#
# Revision: 0
# Processed by: cddbd v1.5.1PL2 Copyright (c) Steve Scherf et al.
# Submitted via: CDex 1.51
#
DISCID=eb0d3512
DTITLE=Ella Fitzgerald - Sing, Song, Swing [CD2]
DYEAR=2001
DGENRE=Jazz
TTITLE0=Undecided
TTITLE1=A-Tisket, A-Tasket
TTITLE2=You Showed Me The Way
TTITLE3=Just A Simple Melody
TTITLE4=Rock It For Me
TTITLE5=My Heart Belongs To Daddy
TTITLE6=The Dipsy Doodle
TTITLE7=If You Ever Should Leave
TTITLE8=Love And Kisses
TTITLE9=Dedicated To You
TTITLE10=McPherson Is Rehearsin' (To Swing)
TTITLE11=Organ Grinder's Swing
TTITLE12=Everyone's Wrong But Me
TTITLE13=It's Wonderful
TTITLE14=Sing Me A Swing Song (And Let Me Dance)
TTITLE15=Holiday In Harlem
TTITLE16=HalleluJah!
TTITLE17=My Last Affair
EXTD=YEAR: 2001
EXTT0=
EXTT1=
EXTT2=
EXTT3=
EXTT4=
EXTT5=
EXTT6=
EXTT7=
EXTT8=
EXTT9=
EXTT10=
EXTT11=
EXTT12=
EXTT13=
EXTT14=
EXTT15=
EXTT16=
EXTT17=
PLAYORDER=
